# xmcd
# Track frame offsets:
# 180
# 20971
# 44049
# 64102
# 81483
# 93692
# 116791
# 136719
# 159047
# 178733
# 206662
# 224669
# 240067
# 252857
# 268043
# 287563
# 306760
#
# Disc length: 4340 seconds
# Revision: 0
# Processed by: cddbd v1.4PL0 Copyright (c) Steve Scherf et al.
# Submitted via: VisiTrax 2.9.5.180 - For more info visit www.synapsa.com
#
DISCID=fc10f211
DTITLE=Mary Chapin Carpenter - Listen to your heart
DYEAR=1989
DGENRE=
TTITLE0=Mary Chapin Carpenter - The hard day
TTITLE1=Mary Chapin Carpenter - Never had it so good
TTITLE2=Mary Chapin Carpenter - You win again
TTITLE3=Mary Chapin Carpenter - Going out tonight
TTITLE4=Mary Chapin Carpenter - How do
TTITLE5=Mary Chapin Carpenter - The rythm of the blues
TTITLE6=Mary Chapin Carpenter - Down at the twist and shout
TTITLE7=Mary Chapin Carpenter - Read my lips
TTITLE8=Mary Chapin Carpenter - I feel lucky
TTITLE9=Mary Chapin Carpenter - Only a dream
TTITLE10=Mary Chapin Carpenter - I take my chances
TTITLE11=Mary Chapin Carpenter/Lucinda Williams - Passionate kisser
TTITLE12=Mary Chapin Carpenter - Down in Mary's land
TTITLE13=Mary Chapin Carpenter - Something of a dreamer
TTITLE14=Mary Chapin Carpenter - Never had it so good
TTITLE15=Mary Chapin Carpenter - Slow country dance
TTITLE16=Mary Chapin Carpenter - This shirt
EXTD=
EXTT0=
EXTT1=
EXTT2=
EXTT3=
EXTT4=
EXTT5=
EXTT6=
EXTT7=
EXTT8=
EXTT9=
EXTT10=
EXTT11=
EXTT12=
EXTT13=
EXTT14=
EXTT15=
EXTT16=
PLAYORDER=
